<?xml version="1.0" encoding="UTF-8" standalone="no"?>
<!DOCTYPE svg PUBLIC "-//W3C//DTD SVG 1.1//EN" "http://www.w3.org/Graphics/SVG/1.1/DTD/svg11.dtd">
<svg version="1.1" xmlns="http://www.w3.org/2000/svg" xmlns:xlink="http://www.w3.org/1999/xlink" preserveAspectRatio="xMidYMid meet" viewBox="83.27731062295081 128.8388778860224 422.7585869003359 218.21072771323495" width="418.76" height="214.21"><defs><path d="M180.74 151.52C180.62 151.1 180.33 150.75 179.94 150.56C179.68 150.49 179.41 150.49 179.15 150.55C178.74 150.61 175.49 151.09 175.08 151.16C174.74 151.17 174.42 151.29 174.16 151.51C173.63 152.05 174.15 152.93 174.13 153.68C174.11 154.52 173.35 155.21 172.51 155.43C171.67 155.6 170.79 155.59 169.94 155.4C169.38 155.32 164.83 154.63 164.26 154.54C165.93 154.02 167.42 153.05 168.56 151.74C169.31 150.87 169.71 149.25 168.63 148.84C168.3 148.76 167.97 148.73 167.64 148.77C165.06 148.78 163.04 146.68 160.63 145.8C157.46 144.71 153.94 145.74 151.9 148.34C152.2 148.35 154.63 148.47 154.93 148.48C155.21 148.47 155.5 148.54 155.73 148.69C156.4 149.23 155.57 150.25 155.67 151.08C155.79 152.17 157.26 152.4 158.37 152.51C159.48 152.62 160.89 153.5 160.36 154.46C154.78 156.34 149.1 150.79 143.24 151.47C141.76 151.64 140.35 152.21 138.91 152.57C130.06 154.76 120.92 148.92 111.88 150.16C109.87 150.49 107.9 151 105.98 151.68C104.75 152.07 103.47 152.5 102.58 153.41C101.68 154.33 101.34 155.9 102.19 156.85C99.86 157.04 97.51 156.82 95.25 156.21C96.49 156.88 97.26 158.17 97.25 159.56C93.61 160.14 90.06 161.19 86.71 162.7C87.33 163.72 88.06 164.67 88.89 165.54C88.43 165.83 84.74 168.15 84.28 168.44C85.84 168.82 86.64 170.9 85.73 172.19C87.35 171.49 88.35 169.67 90.08 169.3C91.21 169.06 92.36 169.52 93.44 169.94C94.51 170.37 95.69 170.78 96.8 170.46C97.91 170.14 98.73 168.73 98.03 167.83C102.78 166.48 107.69 165.73 112.63 165.6C113.02 165.56 113.4 165.63 113.74 165.81C114.39 166.25 114.22 167.19 114.18 167.95C114.15 168.72 114.76 169.73 115.46 169.38C114.63 170.08 115.34 171.39 116.13 172.13C116.92 172.86 117.87 173.87 117.39 174.83C117.26 175.08 117.04 175.28 116.92 175.53C116.57 176.27 117.13 177.13 117.81 177.63C118.48 178.12 119.3 178.46 119.77 179.15C120.23 179.83 120.02 181.02 119.19 181.12C118.95 180.82 117.05 178.47 116.82 178.18C116.01 179 115.45 180.03 115.21 181.14C117.73 183.15 118.11 187.24 116 189.66C114.93 190.89 113.4 191.64 112.06 192.6C110.73 193.57 109.49 194.94 109.5 196.56C109.5 199.36 109.27 201.96 110.34 204.56C112.32 209.35 114.61 214.01 117.19 218.52C117.87 219.71 118.74 221 120.11 221.21C117.51 215.02 115.9 209.89 115.43 208.64C116.33 208.64 117.38 208.71 117.91 209.43C118.35 210.02 118.25 210.83 118.39 211.55C118.56 212.24 118.85 212.91 119.25 213.51C120.07 214.95 126.7 226.49 127.53 227.93C128.21 229.12 129 230.41 130.31 230.89C131.15 231.2 132.12 231.14 132.89 231.59C133.5 231.94 133.91 232.56 134.52 232.89C136.27 233.82 138.69 232.03 140.32 233.14C140.79 233.46 141.09 233.97 141.51 234.33C143.02 235.6 145.49 234.75 147.23 235.7C148.35 236.31 148.93 237.54 149.53 238.65C151.02 241.43 153.44 244.16 156.65 244.38C157.66 244.45 158.69 244.26 159.67 244.48C160.66 244.7 161.63 245.54 161.47 246.51C161.2 248.18 162.04 250.02 161.82 251.69C161.4 254.75 156.97 256.09 156.59 259.15C156.5 259.82 156.63 260.51 156.47 261.17C156.27 261.97 155.65 262.63 155.43 263.43C155.02 264.94 156.13 266.45 157.35 267.47C158.57 268.49 160.02 269.36 160.69 270.79C161.39 272.3 161.04 274.05 161.27 275.7C161.77 279.28 164.94 281.94 168.2 283.65C169.19 284.17 170.26 284.68 170.9 285.58C171.74 286.77 171.66 288.32 171.94 289.74C172.62 293.19 175.6 296.04 175.69 299.57C175.75 302.07 174.32 304.34 173.47 306.7C171.86 311.28 172.37 316.32 174.86 320.51C175.5 321.56 176.26 322.55 176.71 323.68C177.51 325.72 177.25 328.02 177.99 330.08C178.97 332.79 181.66 335.04 181.41 337.9C182.63 340.38 185.32 341.6 188.04 342.34C188.52 342.47 192.41 343.53 192.9 343.66C193.83 343.92 194.8 344.17 195.75 343.99C196.69 343.8 197.6 343.03 197.57 342.09C195.19 341.57 192.73 341.01 190.77 339.59C188.8 338.17 187.46 335.64 188.2 333.37C188.55 332.31 189.28 331.09 188.58 330.22C188.18 329.72 187.45 329.59 187 329.14C186.3 328.43 186.54 327.23 187.04 326.38C187.55 325.52 188.28 324.76 188.49 323.79C188.7 322.68 188.18 321.56 187.19 320.98C188.09 320.64 188.91 320.13 189.6 319.47C190.23 318.76 190.52 317.67 190.02 316.87C191.5 317.05 193.25 317.14 194.22 316.04C194.99 315.16 194.94 313.84 194.63 312.71C194.32 311.59 193.81 310.5 193.79 309.34C197.2 309.49 200.62 309.38 204.01 309C203.52 307.38 202.4 306.02 200.9 305.2C202.44 304.94 203.84 303.14 204.32 301.7C204.81 300.25 204.68 298.68 204.38 297.18C204.27 296.8 204.25 296.39 204.34 296C204.51 295.46 205.05 295.13 205.55 294.85C206.31 294.42 212.41 291 213.17 290.57C213.63 290.35 214.04 290.05 214.39 289.69C215.19 288.78 215.07 287.39 214.66 286.26C214.25 285.12 213.6 284.05 213.44 282.86C212.97 279.29 216.88 276.73 218.2 273.36C218.72 272.04 218.83 270.61 218.93 269.2C219.03 267.69 219.04 265.93 217.85 264.95C216.71 264.02 214.93 264.23 213.74 263.36C212.64 262.56 212.27 261.01 211.07 260.36C209.99 259.78 208.63 260.15 207.42 259.88C205.29 259.39 203.96 257 201.79 256.78C200.56 256.65 199.18 257.24 198.17 256.54C197.29 255.93 197.25 254.69 197.08 253.64C196.48 250.31 193.81 247.7 190.41 247.09C189.14 246.9 187.77 246.97 186.69 246.29C185.61 245.61 185.11 244.32 184.25 243.37C182.88 241.84 180.71 241.29 178.68 240.83C177.85 240.64 171.24 239.12 170.41 238.93C168.95 238.59 167.06 238.41 166.27 239.67C166.04 240.15 165.87 240.65 165.78 241.17C165.17 243.11 163.36 244.45 161.29 244.48C160.6 243.32 159.47 242.48 158.16 242.11C157.32 241.88 156.42 241.86 155.62 241.52C153.86 240.68 153.12 238.59 153.99 236.87C154.02 236.81 154.05 236.75 154.08 236.69C155.06 234.99 154.75 232.86 153.32 231.49C151.92 230.25 149.88 229.95 148 230.08C147.51 229.03 148.33 227.84 149.22 227.07C150.11 226.31 151.19 225.56 151.38 224.41C151.69 222.62 149.34 221.25 147.56 221.79C145.78 222.33 144.65 224.02 143.89 225.68C143.46 226.64 143.1 227.65 142.42 228.45C141.74 229.26 140.64 229.83 139.61 229.58C138.14 229.21 137.57 227.51 137.25 226.06C136.81 224.12 136.38 222.16 136.47 220.18C136.56 218.19 137.24 216.16 138.74 214.82C141.18 212.63 144.91 212.84 148.2 213.19C147.43 212.34 147.62 210.89 148.45 210.09C149.34 209.31 150.57 209.02 151.72 209.3C152.71 209.5 153.61 210.03 154.26 210.78C155.19 211.9 155.46 213.4 156.16 214.67C156.87 215.93 158.46 217.01 159.76 216.33C160.88 215.74 161.06 214.22 160.78 213.01C160.5 211.79 159.91 210.61 160.01 209.37C160.2 207.01 162.71 205.58 164.93 204.61C167.14 203.63 169.68 202.32 170.03 199.97C170.04 199.51 170.13 199.06 170.29 198.62C170.54 198.24 170.88 197.93 171.29 197.71C177.75 193.54 184.32 189.31 191.71 187.03C192.1 186.91 192.14 187.04 192.53 186.95C193.08 186.64 192.72 185.78 192.19 185.44C191.67 185.09 190.96 184.83 190.83 184.22C190.73 183.78 191 183.34 191.07 182.89C191.24 181.78 189.89 180.76 188.84 181.21C188.24 180.44 189.42 179.54 190.37 179.29C193.22 178.52 196.15 178.05 199.1 177.89C199.44 177.84 199.79 177.9 200.09 178.06C200.59 178.4 200.53 179.17 200.17 179.64C199.82 180.12 199.28 180.43 198.84 180.83C197.86 181.76 197.5 183.14 197.89 184.42C199.43 185.18 201.11 185.97 202.82 185.7C204.53 185.43 206.04 183.56 205.24 182.06C204.49 180.66 202.25 180.35 201.86 178.82C201.41 177.03 204 175.44 203.42 173.69C203.16 172.92 202.38 172.47 201.78 171.91C200.32 170.52 199.9 168.4 200.7 166.58C198.71 166.92 196.68 166.3 195.25 164.91C193.95 163.62 192.91 161.6 191.06 161.65C189.36 161.71 187.89 163.64 186.31 163.05C185.92 162.91 185.5 162.61 185.13 162.78C184.87 162.94 184.71 163.21 184.68 163.5C184.28 165.39 184.98 167.53 183.92 169.16C182.78 170.94 180.13 171.18 178.75 172.78C177.99 173.65 177.7 174.82 177.01 175.74C176.32 176.65 174.85 177.23 174.02 176.43C174.86 174.75 174.39 172.71 172.9 171.53C172.12 171.04 171.29 170.65 170.42 170.36C169.45 169.95 168.52 169.45 167.66 168.85C167.22 168.6 166.87 168.23 166.64 167.79C166.46 167.24 166.48 166.64 166.71 166.11C167.57 163.7 169.72 161.96 172.3 161.58C173.41 161.44 174.69 161.49 175.42 160.66C175.81 160.23 176.01 159.57 176.58 159.39C176.94 159.32 177.31 159.37 177.64 159.52C178.05 159.66 181.36 160.8 181.77 160.94C182.23 161.14 182.74 161.23 183.24 161.18C183.76 161.11 184.13 160.66 184.1 160.15C183.97 159.48 182.92 159.16 183.01 158.49C183.07 158.27 183.19 158.07 183.36 157.92C186.37 154.78 190.67 153.12 195.06 153.4C195.58 154.24 194.76 155.23 194.07 155.94C193.39 156.66 192.84 157.93 193.67 158.48C194.01 158.65 194.38 158.73 194.77 158.72C195.78 158.86 196.77 159.15 197.69 159.59C199.83 160.5 201.47 161.38 201.89 161.58C201.77 160.7 201.65 159.77 202 158.94C202.34 158.11 203.31 157.47 204.16 157.79C204.98 158.1 205.4 159.16 206.28 159.26C207.44 159.39 207.9 157.7 207.42 156.66C206.93 155.62 205.97 154.74 205.89 153.6C205.83 152.83 206.13 151.87 205.5 151.4C205.28 151.26 205.02 151.18 204.76 151.15C203.18 150.86 190.58 148.6 189.01 148.32C188.07 148.15 186.72 148.28 186.68 149.2C186.66 149.72 187.13 150.24 186.92 150.71C186.7 151.22 185.96 151.17 185.43 151.35C184.59 151.63 184.18 152.6 184.26 153.45C184.4 154.3 184.74 155.11 185.24 155.82C184.22 155.4 182.67 155.32 181.64 154.91C181.49 153.74 181.19 152.6 180.74 151.52Z" id="a1ryZGC7Ua"></path><path d="M169.08 141.84C167.04 141.18 164.81 141.84 163.48 143.48C163.22 143.81 163 144.27 163.22 144.63C163.53 145.15 164.32 144.95 164.91 144.76C165.76 144.46 166.7 144.44 167.57 144.7C168.12 144.88 168.61 145.21 169.16 145.39C169.71 145.61 170.34 145.52 170.8 145.15C171.18 144.78 171.2 144.19 171.2 143.66C171.25 143.3 171.14 142.94 170.89 142.67C170.67 142.55 170.42 142.48 170.17 142.47C169.59 142.36 169.08 142.07 168.71 141.63" id="aaYmLFPKY"></path><path d="M174.76 140.29C174.04 140.25 173.43 140.79 173.39 141.49C173.38 141.69 173.42 141.89 173.5 142.08C174.19 142.26 174.9 142.31 175.6 142.21C176.31 142.1 176.89 141.59 177.06 140.9C176.24 141.05 175.39 140.89 174.68 140.45" id="d1vcJpEXOD"></path><path d="M185.62 133.3C187.27 133.93 188.32 135.54 188.2 137.27C188.12 137.59 188.13 137.93 188.22 138.25C188.42 138.72 188.99 138.89 189.49 139.01C190.4 139.28 191.34 139.4 192.28 139.36C193.24 139.31 194.11 138.79 194.59 137.98C194.73 137.6 194.89 137.23 195.08 136.87C196.28 135.08 199.86 137.25 201.16 135.51C201.61 134.9 201.57 133.98 202.17 133.5C202.47 133.29 202.83 133.15 203.2 133.11C205.81 132.61 208.44 132.24 211.08 132.01C212.33 131.91 213.97 131.47 213.98 130.24C209.26 129.33 204.36 129.98 200.06 132.07C198.51 132.83 196.45 134.43 194.96 133.42C194.4 133.04 194.43 132.03 193.66 131.6C192.87 131.17 191.83 131.35 190.99 131.52C189.13 131.91 187.33 132.5 185.62 133.3Z" id="a2q2ainTfj"></path><path d="M213.87 135.56C212.28 135.49 210.94 136.69 210.87 138.24C210.87 138.36 210.87 138.48 210.88 138.6C212.95 139.28 215.22 138.62 217.4 138.71C219.59 138.8 222.13 140.33 221.75 142.43C221.64 143.07 221.27 143.71 221.46 144.32C221.6 144.76 221.99 145.06 222.21 145.46C222.67 146.29 222.3 147.34 221.72 148.1C221.14 148.85 220.36 149.45 219.85 150.26C218.59 152.25 219.31 154.83 220.06 157.06C220.28 157.9 220.68 158.69 221.24 159.37C222.36 160.53 224.18 160.63 225.81 160.65C227 160.67 228.36 160.61 229.11 159.71C230.09 158.54 229.4 156.71 230.05 155.33C230.63 154.08 232.13 153.54 233.48 153.16C235.96 152.46 238.48 151.87 240.82 150.82C243.73 149.51 246.45 147.47 249.65 147.3C250.54 147.26 251.46 147.36 252.33 147.12C253.19 146.88 254.01 146.15 253.95 145.27C253.89 144.53 253.24 143.98 252.74 143.41C252.23 142.85 251.83 141.98 252.3 141.39C253.14 141.23 259.84 140.01 260.68 139.86C260.08 138.27 259.62 136.19 260.99 135.16C261.48 134.79 262.14 134.64 262.56 134.19C263.27 133.42 262.91 132.1 262.09 131.45C261.26 130.8 260.15 130.65 259.09 130.57C255.42 130.27 251.72 130.46 248.04 130.66C237.24 131.24 228.61 131.7 226.45 131.82C225 131.9 223.33 131.78 222 132.26C220.88 132.67 220.08 133.42 218.79 133.68C216.41 134.17 213.8 133.84 211.65 135.14C211.65 135.14 213.64 135.52 213.87 135.56Z" id="b68xW59kq"></path><path d="M248.28 157.79C248.16 157.92 248.08 158.1 248.07 158.28C247.93 159.07 248.1 159.89 248.55 160.57C249.01 161.25 249.82 161.63 250.65 161.56C251.65 161.44 252.39 160.6 253.3 160.2C254.72 159.57 260.72 158.6 256.57 156.41C255.14 155.65 254.21 156.32 253.08 156.82C251.8 157.46 250.36 157.74 248.93 157.65C248.7 157.61 248.47 157.66 248.28 157.79Z" id="ah0HdLNPk"></path><path d="M284.14 140.28C283.89 140.74 284.05 141.32 284.52 141.59C284.7 141.65 284.89 141.68 285.08 141.68C285.28 141.68 286.86 141.73 287.06 141.73C287.89 141.76 288.94 141.93 289.16 142.72C289.33 143.31 288.96 144.06 289.41 144.48C289.6 144.63 289.83 144.71 290.08 144.74C290.73 144.9 291.41 144.92 292.06 144.8C293.5 144.42 292.75 143.57 293.2 142.8C293.89 141.64 293.77 142.34 294.99 141.68C295.89 141.18 297.05 140.29 296.3 139.03C294.99 136.84 287.22 138.36 285.29 139.29C284.81 139.49 284.4 139.83 284.14 140.28Z" id="bOcWI8pDS"></path><path d="M323.06 138.34C320.47 138.68 317.88 139.02 315.39 139.78C316.47 140.19 317.6 140.47 318.75 140.58C319.38 140.61 320.01 140.7 320.63 140.84C321.73 141.16 322.83 141.99 323.89 141.57C324.55 141.3 324.77 140.64 325.31 140.28C325.69 140.04 327.11 139.64 327.27 139.39C328.56 137.39 325.19 138.07 324.2 138.2C324.2 138.2 323.17 138.33 323.06 138.34Z" id="aGbCyG9l"></path><path d="M325 146.3C324.46 146.8 323.91 147.41 323.96 148.13C324.03 149.09 325.07 149.64 325.97 150.02C326.34 150.17 329.27 151.38 329.63 151.53C330.08 150.92 329.67 150.08 329.21 149.48C328.75 148.88 328.21 148.18 328.41 147.46C328.64 146.63 329.67 146.35 330.54 146.21C331.94 145.98 335.74 145.99 335.28 143.78C334.74 141.17 330.64 142.51 329.23 143.28C327.7 144.12 326.28 145.13 325 146.3Z" id="gJNPnLf2z"></path><path d="M328.03 294.97C328.71 295.94 330.06 296.3 331.23 296.05C332.4 295.75 333.44 295.1 334.21 294.19C334.91 293.42 335.48 292.56 335.91 291.63C336.52 290.17 336.94 288.65 337.18 287.1C337.29 286.51 338.2 281.85 338.32 281.26C338.57 279.96 338.56 275.97 336.11 277.27C335.44 277.62 333.89 280.43 333.19 281.23C331.93 282.66 331.76 284.05 331.09 285.79C330.26 287.97 328.58 289.79 327.81 291.97C327.46 292.95 327.43 294.11 328.03 294.97Z" id="bCJBsfIz8"></path><path d="M457.91 320.86C457.11 320.56 456.33 320.2 455.58 319.78C454.83 321.8 454.43 323.92 454.4 326.07C454.95 325.77 459.34 323.34 459.89 323.03C460.71 322.58 461.65 321.94 461.63 321.02C461.65 320.78 461.53 320.56 461.33 320.44C461.21 320.39 461.07 320.37 460.94 320.39C460.13 320.46 459.39 320.85 458.62 321.12C457.85 321.39 456.95 321.54 456.25 321.13" id="f2zNzzJPfO"></path><path d="M485.09 323.28C483.83 323.91 482.98 325.1 481.84 325.92C480.76 326.71 479.45 327.15 478.17 327.57C477.8 327.89 477.97 328.55 478.38 328.84C478.82 329.08 479.32 329.19 479.83 329.15C481.16 329.18 482.56 329.19 483.73 328.57C484.38 328.15 485 327.67 485.56 327.14C486.93 326.03 488.56 325.3 490.18 324.59C490.77 324.37 491.32 324.05 491.79 323.65C492.81 322.67 492.88 321.15 491.42 320.82C490.23 320.55 487.98 322.31 486.85 322.67C486.25 322.83 485.66 323.03 485.09 323.28Z" id="fnibVk1vE"></path><path d="M499.64 314.41C499.77 313.05 499.26 311.7 498.24 310.75C498.22 312.1 498.18 313.54 497.41 314.65C496.85 315.45 495.98 315.99 495.38 316.74C494.77 317.5 494.5 318.7 495.21 319.37C495.67 319.71 496.22 319.89 496.79 319.9C498.21 320.06 499.85 320.15 500.84 319.15C501.38 318.61 501.65 317.8 502.31 317.4C502.55 317.3 502.77 317.14 502.95 316.95C503.22 316.52 502.79 315.96 502.3 315.81C501.81 315.66 501.28 315.73 500.79 315.59C500.29 315.44 499.84 314.9 500.1 314.46" id="lCYOWnJWl"></path><path d="M474.33 264.98C473.07 264.75 472.09 263.82 471.07 263.06C468.65 261.26 465.71 260.26 462.67 260.19C459.91 260.14 457.12 260.87 454.4 260.36C454.58 261.33 455.42 262.05 456.32 262.48C457.22 262.91 458.22 263.13 459.12 263.55C460.57 264.23 461.72 265.4 462.36 266.84C462.66 267.51 462.84 268.23 463.28 268.81C464.18 270 465.9 270.26 467.41 270.16C469.37 270.04 471.43 269.48 473.26 270.2C474.66 270.75 475.67 271.95 476.84 272.88C478.01 273.81 479.66 274.5 481 273.83C478.13 272.93 476.21 270.3 476.24 267.36C477.56 267.48 481.35 267.43 481.15 265.24C480.97 263.39 477.73 264.65 476.6 264.85C475.86 265.02 475.09 265.07 474.33 264.98Z" id="jTNhLYd07"></path><path d="M460.79 276.52C460.51 275.68 459.52 275.27 458.61 275.25C457.71 275.22 456.83 275.49 455.92 275.51C455.34 275.48 454.75 275.49 454.16 275.54C452.37 275.82 451.27 277.66 449.58 278.31C448.56 278.71 447.4 278.63 446.34 278.9C443.92 279.53 442.38 281.76 440.69 283.57C437.96 286.47 434.39 288.5 430.46 289.4C429.09 289.71 427.61 289.91 426.51 290.78C425.06 291.94 424.7 293.92 424.38 295.73C423.49 300.7 422.13 305.59 420.32 310.32C420.89 310.39 425.49 310.97 426.07 311.04C427.16 311.17 428.29 311.31 429.35 310.99C430.11 310.71 430.84 310.33 431.5 309.87C434.06 308.31 436.93 307.3 439.92 306.9C441.42 306.7 443 306.66 444.41 307.21C445.83 307.75 447.04 308.99 447.16 310.48C448.4 310.1 449.76 310.42 450.69 311.32C451.59 312.21 452.18 313.36 452.37 314.6C452.52 315.37 452.68 316.29 453.41 316.62C454 316.88 454.69 316.6 455.34 316.55C457.55 316.37 459.38 318.89 461.55 318.46C463.89 317.99 464.46 314.58 466.73 313.9C468.04 313.51 469.87 313.98 470.49 312.8C471.04 311.75 469.95 310.54 470.06 309.37C470.2 307.93 471.94 307.32 473.28 306.7C477.91 304.58 480.1 298.49 477.86 294C476.53 291.34 473.92 289.25 473.44 286.32C473.07 284.08 473.97 281.45 472.51 279.68C471.76 278.78 470.5 278.29 470.05 277.21C469.77 276.54 469.89 275.77 469.73 275.05C469.58 274.34 468.95 273.59 468.23 273.78C466.13 274.32 465.46 280.64 464.34 282.18C462.64 284.51 459.14 282.97 459.67 280.1C459.91 278.84 461.19 277.73 460.79 276.52Z" id="h1gddJzxOj"></path><path d="M418.77 267.29C418.08 267.57 417.68 268.55 418.23 269.04C422.54 268.88 426.87 268.71 431.14 269.28C436.06 269.94 440.93 271.57 445.87 271.09C443.05 270.28 440.18 269.63 437.28 269.15C436.8 269.05 432.93 268.33 432.44 268.24C431.14 267.98 429.83 267.78 428.51 267.65C425.75 267.43 423.66 268.14 420.95 267.39C420.24 267.2 419.45 267.01 418.77 267.29Z" id="aJhgfDdCV"></path><path d="M424.28 252.98C424.1 253.27 424.3 253.65 424.21 253.97C424.08 254.41 423.49 254.52 423.02 254.46C422.56 254.4 422.06 254.26 421.65 254.48C421.22 254.76 421.03 255.29 421.2 255.77C421.36 256.24 421.64 256.66 421.99 257.01C422.6 257.76 423.29 258.44 424.06 259.04C425.54 260.11 427.54 260.62 428.48 262.17C428.61 262.47 428.81 262.74 429.07 262.95C429.51 263.22 430.1 263.01 430.58 262.8C430.75 262.72 432.1 262.12 432.27 262.04C432.57 261.94 432.84 261.76 433.06 261.52C433.44 261.01 433.21 260.28 432.88 259.73C432.56 259.18 432.14 258.61 432.21 257.97C432.34 256.85 433.82 256.42 434.43 255.45C435.04 254.48 434.64 253.23 434.72 252.09C434.8 250.75 435.66 249.02 434.28 248.02C433.1 247.17 431.98 247.96 431.14 248.89C429.37 250.86 428.53 253 425.26 252.73C424.91 252.7 424.46 252.68 424.28 252.98Z" id="dDYOTu0WH"></path><path d="M437.92 235.58C438.61 236.72 438.53 238.19 439.27 239.29C440.03 240.43 441.55 241.03 441.98 242.32C442.44 243.72 441.39 245.43 442.23 246.66C442.85 247.46 444.03 247.62 444.84 247.01C444.89 246.98 444.93 246.94 444.97 246.91C445.7 246.12 445.67 244.91 444.88 244.17C444.39 243.73 443.67 243.53 443.26 243.02C443.04 242.72 442.9 242.37 442.84 242.01C442.61 240.97 442.65 239.89 442.94 238.87C443.05 238.61 443.08 238.32 443.02 238.04C442.84 237.51 442.1 237.47 441.58 237.23C440.41 236.67 440.44 235.05 440.64 233.79C440.51 234.63 437.45 233.2 437.13 232.73C436.49 231.78 436.84 229.96 436.71 228.92C435.34 229.57 434.81 231.48 435.52 232.8C436.09 233.88 437.3 234.53 437.92 235.58Z" id="a11gf6XIPo"></path><path d="M402.55 248.52C401.97 248.8 401.81 249.58 402.04 250.17C402.31 250.75 402.74 251.24 403.27 251.61C404.84 252.88 406.54 254.03 407.92 255.5C410.38 258.15 411.68 261.71 414.36 264.15C414.9 264.72 415.61 265.09 416.39 265.22C417.17 265.29 418.04 264.81 418.13 264.05C418.21 263.42 417.76 262.86 417.32 262.39C416.28 261.29 415.14 260.27 414.16 259.12C413.71 258.67 413.42 258.09 413.35 257.47C413.35 256.85 413.93 256.19 414.55 256.35C413.8 256.16 413.24 254.94 412.14 254.71C411.22 254.52 411 255.08 409.9 254.62C407.82 253.74 406.18 251.01 404.72 249.41C404.15 248.79 403.3 248.15 402.55 248.52Z" id="bTZkBFLYI"></path><path d="M452 188.67C450.45 188.22 448.4 189.33 448.61 190.9C448.75 191.94 449.74 192.64 450.29 193.55C451.1 194.89 450.88 196.59 450.46 198.09C450.35 198.56 450.15 199 449.87 199.38C449.48 199.79 449 200.13 448.48 200.36C446.39 201.51 444.54 203.04 443.05 204.87C442.88 205.04 442.77 205.25 442.72 205.48C442.64 206.01 443.19 206.4 443.5 206.84C444.18 207.82 443.69 209.14 443.75 210.32C443.73 210.67 443.89 210.99 444.18 211.19C444.59 211.39 445.08 211.05 445.3 210.65C446.04 209.34 445.49 207.23 446.88 206.6C447.14 206.48 447.46 206.43 447.64 206.2C447.91 205.84 447.65 205.31 447.79 204.88C448 204.24 448.9 204.21 449.59 204.24C450.78 204.29 451.97 204.13 453.1 203.78C453.55 203.68 453.95 203.45 454.27 203.12C454.68 202.61 454.65 201.89 454.56 201.25C454.15 198.03 453.11 194.92 451.49 192.09C452.72 192.24 454.05 192.38 455.1 191.75C455.69 191.4 456.4 190.36 456.11 189.65C455.64 188.53 454.81 189.48 453.77 189.29C453.17 189.11 452.58 188.91 452 188.67Z" id="baHYhizhq"></path><path d="M297.12 209.29C296.86 210.03 296.05 210.64 295.29 210.42C294.69 210.24 294.35 209.66 293.93 209.21C291.59 206.74 286.31 208.17 284.86 205.12C284.27 203.87 284.67 202.38 284.27 201.06C283.75 199.5 282.21 198.48 280.53 198.58C279.79 198.68 279.06 198.89 278.38 199.21C273.81 200.99 269.01 202.17 264.11 202.69C263.18 202.75 262.26 202.91 261.37 203.18C259.36 203.89 257.99 205.71 257.01 207.57C256.03 209.43 255.31 211.44 254 213.09C252.63 214.83 250.7 216.04 248.9 217.36C248.2 217.8 247.63 218.39 247.21 219.08C246.82 219.87 246.84 220.78 246.87 221.65C246.91 222.71 247.2 231.16 247.24 232.22C247.29 233.58 247.35 234.99 247.97 236.21C248.75 237.73 250.28 238.72 251.35 240.06C252.44 241.44 253 243.15 252.95 244.89C252.93 245.59 252.86 246.42 253.42 246.86C253.76 247.07 254.15 247.18 254.56 247.18C256.02 247.29 267.73 248.23 269.19 248.35C271.76 248.55 274.62 248.89 276.3 250.81C277.09 251.71 277.73 253.01 278.94 253.11C279.46 253.15 279.97 252.94 280.49 252.9C281.81 252.8 282.96 253.78 283.69 254.85C284.79 256.49 285.29 258.44 285.11 260.4C284.99 261.62 284.6 262.81 284.52 264.04C284.2 268.72 288.25 272.78 288.33 277.46C288.38 280.22 287.04 282.79 285.73 285.23C287.84 288.35 286.12 292.5 286.95 296.15C287.75 299.61 290.7 302.31 291.43 305.78C291.77 307.37 291.79 309.33 293.22 310.15C293.85 310.45 294.55 310.58 295.25 310.54C299.46 310.59 303.63 309.66 307.4 307.84C309.18 306.98 311.01 305.69 311.32 303.78C311.57 302.24 310.77 300.52 311.59 299.18C312.54 297.6 315 297.72 316.41 296.51C318.7 294.53 316.91 290.77 317.84 287.93C318.67 285.38 321.54 284.02 322.97 281.73C323.53 280.74 323.93 279.68 324.16 278.57C324.81 275.93 325.21 273.24 325.37 270.53C325.41 268.88 325.53 267.24 325.74 265.6C327.27 256.29 336.69 250.06 339.75 241.11C340.04 240.26 340.18 239.12 339.4 238.64C338.94 238.42 338.41 238.37 337.92 238.49C337.24 238.57 331.85 239.24 331.17 239.32C330.34 239.42 329.45 239.52 328.68 239.18C327.91 238.84 327.36 237.89 327.77 237.16C328.91 235.14 326.55 232.57 325.51 230.49C322.69 224.9 319.33 219.58 315.48 214.6C315.23 214.34 315.08 214.02 315.04 213.67C315.23 213.67 316.76 213.72 316.95 213.73C316.31 211.46 315.24 208.98 312.99 208.15C311.72 207.69 310.31 207.85 308.96 207.92C305.08 208.13 300.92 207.55 297.08 206.97C297.23 207.74 297.37 208.55 297.12 209.29Z" id="c9iMNg78bh"></path><path d="M312.58 158.26C315.18 158.58 317.04 155.96 318.23 153.68C318.32 154.89 319.38 155.8 320.62 155.75C321.26 155.64 321.87 155.41 322.41 155.06C327.55 152.32 333.31 150.86 339.17 150.83C339.05 149.93 339.65 149.09 340.55 148.88C341.74 148.65 342.81 149.66 343.39 150.71C343.96 151.75 344.32 152.96 345.23 153.75C346.15 154.53 347.91 154.49 348.27 153.36C348.62 152.27 347.46 151.34 346.5 150.7C345.53 150.06 344.52 148.87 345.17 147.93C350.09 146.86 355.04 145.79 360.08 145.58C360.93 145.61 361.79 145.47 362.58 145.16C363.35 144.79 363.96 143.96 363.76 143.14C361.51 143.66 359.16 142.8 357.83 140.96C364.81 140.39 372.25 139.91 378.44 143.13C379.18 144.69 375.39 145.98 376.41 147.39C376.73 147.84 377.38 147.89 377.94 147.9C382.24 147.98 386.57 148.06 390.82 147.42C392.38 147.19 393.95 146.86 395.51 147.05C398.11 147.36 400.34 149.06 402.89 149.61C403.93 149.84 405.1 149.84 405.98 149.25C406.86 148.66 407.23 147.31 406.52 146.54C408.92 144.24 412.92 144.81 416.1 145.91C419.28 147.02 422.29 148.8 425.65 149.05C428.06 149.22 430.51 148.59 432.89 148.99C434.39 149.24 435.78 149.9 437.24 150.3C440.01 151.05 442.94 150.89 445.81 150.93C453.15 151.03 460.4 152.43 467.21 155.08C468.1 155.37 468.91 155.84 469.59 156.46C470.22 157.12 470.55 158.15 470.12 158.96C469.42 158.86 463.79 158.06 463.08 157.95C463.74 159.23 465.46 159.45 466.85 159.89C468.25 160.33 469.69 161.83 468.86 163.01C467.35 162.54 465.98 164.01 465.21 165.37C464.45 166.73 463.52 168.36 461.94 168.44C460.52 168.51 458.81 167.33 457.88 168.39C459.16 169.96 460.25 171.67 461.14 173.48C462.06 175.34 462.71 177.68 461.47 179.35C461.28 179.65 460.98 179.87 460.64 179.98C459.63 180.23 458.98 179.02 458.26 178.29C457.34 177.37 455.97 177.11 454.74 176.68C453.5 176.25 452.2 175.4 452.11 174.13C452.05 173.33 452.48 172.59 452.79 171.86C453.32 170.62 453.56 169.28 453.47 167.94C453.4 166.87 453.09 165.75 452.3 164.99C451.51 164.24 450.14 164 449.29 164.69C448.9 165.01 448.58 165.53 448.06 165.55C447.15 165.58 446.46 164.03 445.72 164.56C445.81 165.12 445.69 165.7 445.39 166.18C443.2 168.04 439.85 167.26 437.03 167.91C435.69 168.29 434.41 168.83 433.22 169.54C432.77 169.73 432.39 170.04 432.13 170.43C431.78 171.1 432.16 171.96 432.78 172.4C433.44 172.79 434.18 173.04 434.95 173.12C438.38 173.76 441.86 174.74 444.57 176.9C447.28 179.05 449.06 182.61 448.2 185.92C447.53 185.29 442.11 180.23 441.43 179.6C441.82 183.58 441.83 186.79 441.87 187.59C441.91 188.11 441.84 188.63 441.66 189.12C441.17 190.17 439.86 190.52 438.72 190.75C437.47 190.98 436.65 192.15 436.89 193.38C436.9 193.46 436.93 193.54 436.95 193.63C437.36 194.92 438.38 195.94 439.3 196.94C440.23 197.95 441.15 199.1 441.27 200.45C441.39 201.8 440.35 203.33 438.96 203.23C437.91 203.16 437.14 202.24 436.69 201.31C436.24 200.38 435.97 199.34 435.3 198.55C433.26 196.16 428.69 197.18 426.86 194.63C425.92 195.68 425.59 197.13 426.01 198.47C426.86 197.95 428.02 198.43 428.66 199.19C429.3 199.94 429.6 200.91 430.1 201.76C430.77 202.9 431.85 203.91 431.94 205.23C431.92 205.73 431.93 206.23 431.97 206.73C432.14 207.53 432.83 208.1 433.31 208.77C434.42 210.32 434.37 212.45 433.65 214.21C432.93 215.98 431.64 217.45 430.36 218.88C428.13 221.37 425.85 223.85 423.21 225.92C422.45 226.51 421.65 227.09 421.18 227.92C420.71 228.74 420.68 229.9 421.41 230.53C420.89 230.55 419.96 230.8 419.45 230.83C419.26 228.8 419.22 226.76 419.33 224.73C417.29 223.77 415.09 226.34 415.35 228.54C415.62 230.73 417.24 232.5 418.4 234.4C419.25 235.79 419.88 237.41 419.59 239C419.31 240.59 417.85 242.06 416.21 241.92C413.58 241.7 412.49 238.02 409.89 237.6C409.66 237.55 409.42 237.57 409.21 237.67C408.82 237.87 408.75 238.38 408.73 238.81C408.63 240.91 408.53 243.1 409.38 245.05C410.61 247.89 413.79 250.27 413.12 253.29C409.53 251.66 407.66 247.72 406.81 243.94C405.96 240.15 405.82 236.18 404.3 232.6C403.15 234.05 400.72 232.85 399.66 231.34C398.66 229.9 398.05 228.23 397.08 226.78C396.11 225.32 394.62 224.01 392.84 223.93C390.98 223.85 389.36 225.1 387.94 226.28C386.77 227.25 385.57 228.26 384.89 229.6C383.89 231.56 384.15 233.86 384.11 236.04C384.05 238.4 383.54 240.89 381.9 242.62C380.25 244.34 377.22 244.94 375.4 243.39C374.46 242.57 374 241.36 373.59 240.2C371.62 234.58 369.98 228.86 368.68 223.06C368.37 224.38 367.18 226.09 366.05 225.31C365.79 225.1 365.59 224.84 365.44 224.55C363.32 221.04 359.4 218.93 355.44 217.67C351.47 216.41 347.3 215.82 343.38 214.43C341.18 213.65 339.08 212.63 337.13 211.38C336.11 212.84 335.99 214.73 336.82 216.3C337.69 217.81 339.66 218.68 341.35 218.15C342.22 217.88 342.95 217.29 343.82 217C344.68 216.71 345.84 216.85 346.22 217.66C346.58 218.44 346.03 219.38 346.3 220.2C346.72 221.43 348.63 221.53 349.3 222.66C349.79 223.49 349.38 224.61 348.67 225.28C347.96 225.96 347.02 226.33 346.15 226.8C343.34 228.33 341.34 230.94 338.88 232.97C336.43 235 332.96 236.48 330.03 235.18C330.73 231.72 326.52 229.19 325.75 225.75C325.49 224.62 325.62 223.41 325.26 222.31C324.73 220.71 323.28 219.62 322.09 218.41C319.18 215.41 317.63 211.39 317.79 207.26C317.86 205.84 318.13 204.39 317.79 203.01C317.46 201.62 316.29 200.28 314.84 200.34C311.52 200.49 307.33 200.73 305.59 197.96C304.97 196.97 304.7 195.53 305.6 194.77C306.23 194.24 307.17 194.29 308 194.37C308.75 194.44 314.73 195.01 315.48 195.09C317.23 195.25 319.12 195.39 320.62 194.5C322.13 193.6 322.78 191.23 321.39 190.18C320.37 189.41 318.55 189.45 318.26 188.23C318.01 187.21 319.16 186.06 318.54 185.21C318.09 184.6 317.09 184.77 316.48 185.22C315.87 185.68 315.43 186.35 314.75 186.7C313.56 187.3 312.13 186.72 310.85 186.33C309.56 185.94 307.84 185.91 307.22 187.07C306.52 188.38 307.83 190.08 307.14 191.39C306.23 193.12 303.13 192.14 301.85 193.62C300.38 195.33 302.85 197.87 302.35 200.05C301.06 200.67 299.53 200.59 298.32 199.83C297.13 199.03 296.48 197.66 296.63 196.26C296.75 195.28 297.28 194.28 296.93 193.36C296.64 192.61 295.87 192.16 295.16 191.78C294.43 191.38 288.61 188.24 287.89 187.85C287.21 189.07 288.07 190.59 289.13 191.51C290.2 192.43 291.54 193.12 292.24 194.33C293.16 196.07 292.53 198.21 290.81 199.21C290.6 199.36 290.34 199.4 290.09 199.34C289.86 199.2 289.69 198.98 289.62 198.72C288.34 195.51 286.42 192.35 283.34 190.67C280.26 189 275.83 189.34 273.81 192.16C273.33 192.84 273.01 193.6 272.59 194.31C270.37 198.08 265.61 199.86 261.17 199.74C260.73 199.77 260.3 199.67 259.92 199.46C259.2 198.97 259.24 197.94 259.35 197.1C259.39 196.74 259.77 193.86 259.81 193.5C259.91 192.78 260.04 191.98 260.63 191.53C261.45 190.9 262.64 191.3 263.69 191.28C265.31 191.21 266.72 190.15 267.21 188.63C267.64 187.1 267.17 185.46 265.99 184.38C265.51 183.94 264.86 183.38 265.12 182.79C265.32 182.45 265.67 182.23 266.06 182.17C267.95 181.63 269.94 181.49 271.79 180.86C273.64 180.23 275.44 178.94 275.88 177.07C276.01 176.5 276.07 175.8 276.6 175.52C276.86 175.41 277.15 175.35 277.44 175.35C279.52 175.06 281.03 173.27 280.92 171.21C281.81 170.61 283.05 171.05 283.91 171.7C284.77 172.34 285.53 173.2 286.57 173.47C288.52 173.99 290.4 172.31 292.42 172.3C293.27 172.3 294.15 172.59 294.95 172.31C295.76 172.02 296.24 171.23 296.86 170.65C297.48 170.07 298.57 169.72 299.15 170.34C299.1 169.99 298.71 167.16 298.66 166.8C300.65 167.3 302.76 166.92 304.45 165.78C303.82 165.57 298.77 163.9 298.13 163.7C297.91 163.64 297.71 163.54 297.54 163.39C297.08 162.9 297.54 162.15 297.91 161.6C298.81 160.29 298.96 158.12 297.49 157.47C296.49 157.02 295.34 157.56 294.37 158.08C293.91 158.33 290.22 160.34 289.76 160.59C289.62 161.45 290.69 161.94 291.35 162.51C292.45 163.47 292.55 165.11 291.57 166.19C291.08 166.74 290.37 167.05 289.62 167.06C290.23 167.84 290.45 168.86 290.21 169.81C289.9 169.84 287.42 170.01 287.11 170.03C286.76 170.1 286.4 170.03 286.1 169.84C285.77 169.55 285.81 169.05 285.74 168.62C285.55 167.59 284.52 166.87 283.47 166.68C282.41 166.5 281.33 166.73 280.29 166.97C279.85 167.12 279.36 167.11 278.93 166.94C278.68 166.78 278.49 166.55 278.39 166.27C277.93 165.19 278.36 163.91 279.09 162.99C279.83 162.06 280.83 161.38 281.73 160.61C283.89 158.76 285.48 156.35 286.32 153.66C288.02 152.96 289.79 152.01 291.5 151.31C294.13 150.01 297.08 149.45 300.02 149.7C300.6 149.71 305.22 149.8 305.8 149.81C307.51 149.84 309.27 149.88 310.86 150.52C312.44 151.16 313.83 152.54 313.94 154.21C314.01 154.59 313.87 154.98 313.57 155.24C313.34 155.36 313.09 155.42 312.84 155.4C311.24 155.46 310.56 155.85 308.96 155.9C309.98 156.95 311.12 158.07 312.58 158.26Z" id="blobJAmRs"></path><path d="M262.88 173.61C263.34 173.19 263.52 172.54 263.34 171.95C262.22 171.53 260.95 171.76 260.07 172.55C259.72 172.89 259.43 173.27 259.19 173.69C258.43 174.9 257.76 176.35 258.2 177.7C258.27 178 258.46 178.26 258.73 178.41C258.93 178.49 259.14 178.52 259.35 178.51C260.19 178.51 261.03 178.46 261.86 178.36C262.37 178.3 262.96 178.16 263.16 177.69C263.41 177.08 262.79 176.39 262.97 175.76C263.09 175.47 263.27 175.22 263.5 175.01C263.74 174.8 263.85 174.49 263.82 174.18C263.75 173.88 263.28 173.71 263.11 173.97" id="aXnBSYnB6"></path><path d="M264.95 167.97C264.78 167.97 264.62 168 264.47 168.08C264.32 168.18 264.22 168.33 264.17 168.5C263.84 169.54 264.38 170.66 265.42 171.07C265.69 171.13 265.95 171.23 266.19 171.37C266.83 171.86 266.42 172.85 266.55 173.64C266.68 174.52 267.56 175.26 267.4 176.14C267.27 176.83 266.51 177.38 266.64 178.07C266.76 178.79 267.7 179.01 268.45 179.07C268.89 179.14 269.34 179.09 269.74 178.93C270.15 178.65 270.44 178.24 270.56 177.77C270.86 176.88 270.99 175.94 270.94 175C270.93 174.57 270.82 174.15 270.62 173.77C270.39 173.47 270.14 173.19 269.87 172.93C268.43 171.3 269.94 168.86 267.22 168.11C266.48 167.94 265.71 167.9 264.95 167.97Z" id="dfXaLtdI6"></path></defs><g><g><use xlink:href="#a1ryZGC7Ua" opacity="1" fill="#242424" fill-opacity="1"></use><g><use xlink:href="#a1ryZGC7Ua" opacity="1" fill-opacity="0" stroke="#000000" stroke-width="0" stroke-opacity="1"></use></g></g><g><use xlink:href="#aaYmLFPKY" opacity="1" fill="#242424" fill-opacity="1"></use><g><use xlink:href="#aaYmLFPKY" opacity="1" fill-opacity="0" stroke="#000000" stroke-width="1" stroke-opacity="1"></use></g></g><g><use xlink:href="#d1vcJpEXOD" opacity="1" fill="#242424" fill-opacity="1"></use><g><use xlink:href="#d1vcJpEXOD" opacity="1" fill-opacity="0" stroke="#000000" stroke-width="1" stroke-opacity="1"></use></g></g><g><use xlink:href="#a2q2ainTfj" opacity="1" fill="#242424" fill-opacity="1"></use><g><use xlink:href="#a2q2ainTfj" opacity="1" fill-opacity="0" stroke="#000000" stroke-width="1" stroke-opacity="1"></use></g></g><g><use xlink:href="#b68xW59kq" opacity="1" fill="#242424" fill-opacity="1"></use><g><use xlink:href="#b68xW59kq" opacity="1" fill-opacity="0" stroke="#000000" stroke-width="0" stroke-opacity="1"></use></g></g><g><use xlink:href="#ah0HdLNPk" opacity="1" fill="#242424" fill-opacity="1"></use><g><use xlink:href="#ah0HdLNPk" opacity="1" fill-opacity="0" stroke="#000000" stroke-width="1" stroke-opacity="1"></use></g></g><g><use xlink:href="#bOcWI8pDS" opacity="1" fill="#242424" fill-opacity="1"></use><g><use xlink:href="#bOcWI8pDS" opacity="1" fill-opacity="0" stroke="#000000" stroke-width="1" stroke-opacity="1"></use></g></g><g><use xlink:href="#aGbCyG9l" opacity="1" fill="#242424" fill-opacity="1"></use><g><use xlink:href="#aGbCyG9l" opacity="1" fill-opacity="0" stroke="#000000" stroke-width="1" stroke-opacity="1"></use></g></g><g><use xlink:href="#gJNPnLf2z" opacity="1" fill="#242424" fill-opacity="1"></use><g><use xlink:href="#gJNPnLf2z" opacity="1" fill-opacity="0" stroke="#000000" stroke-width="1" stroke-opacity="1"></use></g></g><g><use xlink:href="#bCJBsfIz8" opacity="1" fill="#242424" fill-opacity="1"></use><g><use xlink:href="#bCJBsfIz8" opacity="1" fill-opacity="0" stroke="#000000" stroke-width="0" stroke-opacity="1"></use></g></g><g><use xlink:href="#f2zNzzJPfO" opacity="1" fill="#5c5c5c" fill-opacity="1"></use><g><use xlink:href="#f2zNzzJPfO" opacity="1" fill-opacity="0" stroke="#000000" stroke-width="1" stroke-opacity="1"></use></g></g><g><use xlink:href="#fnibVk1vE" opacity="1" fill="#535353" fill-opacity="1"></use><g><use xlink:href="#fnibVk1vE" opacity="1" fill-opacity="0" stroke="#1b1b1b" stroke-width="1" stroke-opacity="1"></use></g></g><g><use xlink:href="#lCYOWnJWl" opacity="1" fill="#606060" fill-opacity="1"></use><g><use xlink:href="#lCYOWnJWl" opacity="1" fill-opacity="0" stroke="#2a2a2a" stroke-width="1" stroke-opacity="1"></use></g></g><g><use xlink:href="#jTNhLYd07" opacity="1" fill="#383838" fill-opacity="1"></use><g><use xlink:href="#jTNhLYd07" opacity="1" fill-opacity="0" stroke="#232323" stroke-width="0" stroke-opacity="1"></use></g></g><g><use xlink:href="#h1gddJzxOj" opacity="1" fill="#4b4b4b" fill-opacity="1"></use><g><use xlink:href="#h1gddJzxOj" opacity="1" fill-opacity="0" stroke="#000000" stroke-width="0" stroke-opacity="1"></use></g></g><g><use xlink:href="#aJhgfDdCV" opacity="1" fill="#242424" fill-opacity="1"></use><g><use xlink:href="#aJhgfDdCV" opacity="1" fill-opacity="0" stroke="#000000" stroke-width="1" stroke-opacity="1"></use></g></g><g><use xlink:href="#dDYOTu0WH" opacity="1" fill="#242424" fill-opacity="1"></use><g><use xlink:href="#dDYOTu0WH" opacity="1" fill-opacity="0" stroke="#000000" stroke-width="1" stroke-opacity="1"></use></g></g><g><use xlink:href="#a11gf6XIPo" opacity="1" fill="#242424" fill-opacity="1"></use><g><use xlink:href="#a11gf6XIPo" opacity="1" fill-opacity="0" stroke="#000000" stroke-width="1" stroke-opacity="1"></use></g></g><g><use xlink:href="#bTZkBFLYI" opacity="1" fill="#242424" fill-opacity="1"></use><g><use xlink:href="#bTZkBFLYI" opacity="1" fill-opacity="0" stroke="#000000" stroke-width="1" stroke-opacity="1"></use></g></g><g><use xlink:href="#baHYhizhq" opacity="1" fill="#242424" fill-opacity="1"></use><g><use xlink:href="#baHYhizhq" opacity="1" fill-opacity="0" stroke="#000000" stroke-width="1" stroke-opacity="1"></use></g></g><g><use xlink:href="#c9iMNg78bh" opacity="1" fill="#242424" fill-opacity="1"></use><g><use xlink:href="#c9iMNg78bh" opacity="1" fill-opacity="0" stroke="#000000" stroke-width="0" stroke-opacity="1"></use></g></g><g><use xlink:href="#blobJAmRs" opacity="1" fill="#242424" fill-opacity="1"></use><g><use xlink:href="#blobJAmRs" opacity="1" fill-opacity="0" stroke="#000000" stroke-width="0" stroke-opacity="1"></use></g></g><g><use xlink:href="#aXnBSYnB6" opacity="1" fill="#242424" fill-opacity="1"></use><g><use xlink:href="#aXnBSYnB6" opacity="1" fill-opacity="0" stroke="#000000" stroke-width="1" stroke-opacity="1"></use></g></g><g><use xlink:href="#dfXaLtdI6" opacity="1" fill="#242424" fill-opacity="1"></use><g><use xlink:href="#dfXaLtdI6" opacity="1" fill-opacity="0" stroke="#000000" stroke-width="1" stroke-opacity="1"></use></g></g></g></svg>